<?xml version="1.0" encoding="UTF-8"?><svg id="Isolation_Mode" xmlns="http://www.w3.org/2000/svg" viewBox="0 0 180 180"><defs><style>.cls-1,.cls-2{fill:#fff;}.cls-3{fill:#f6e234;stroke:#262425;stroke-miterlimit:10;stroke-width:.1px;}.cls-2,.cls-4,.cls-5{fill-rule:evenodd;}.cls-6{fill:#262425;}.cls-4{fill:#c9272d;}.cls-7{fill:#5791cd;}.cls-5,.cls-8{fill:none;}.cls-9{fill:#396643;}</style></defs><rect class="cls-7" width="180" height="180"/><g><path class="cls-1" d="M112.14,51.36c2.39-.59,4.75-1.57,6.93-3.09l1.72-1.2-.73,22.01-.44,.3c-.78,.54-4.1,2.73-10.03,3.52-4.45,6.77-12.2,11.13-20.86,10.84-9.94-.33-18.28-6.69-21.64-15.47-2.25,.67-4.33,1.77-6.1,3.44l-1.86,1.75,.78-23.38,.49-.3c.87-.53,3.77-2.25,8.8-3.05,4.41-7.02,12.3-11.57,21.14-11.27,10.11,.34,18.55,6.9,21.8,15.9Z"/><path class="cls-5" d="M66.85,58.84c.42-12.59,10.91-22.46,23.45-22.04,12.53,.42,22.35,10.96,21.93,23.55-.42,12.59-10.91,22.47-23.44,22.06-12.53-.42-22.35-10.97-21.93-23.56Z"/><path class="cls-4" d="M60.95,50.69c1.59-.97,11.71-7.08,31.44,.22,1.87,.57,16.54,5.73,27.29-1.78l-.64,19.37c-1.21,.84-10.63,7.11-28.85,.95-3.21-.92-20.54-7.37-29.91,1.48l.67-20.25Z"/><g><path class="cls-9" d="M103.6,73.69c-3.76,3.78-8.99,6.04-14.72,5.85-7.75-.26-14.31-4.94-17.36-11.54,1.93-.16,3.91-.1,5.86,.11,5.74,.6,10.73,2.39,12.34,2.86,5.34,1.81,9.97,2.57,13.89,2.72Z"/><path class="cls-9" d="M103.6,73.69c-3.76,3.78-8.99,6.04-14.72,5.85-7.75-.26-14.31-4.94-17.36-11.54,1.93-.16,3.91-.1,5.86,.11,5.74,.6,10.73,2.39,12.34,2.86,5.34,1.81,9.97,2.57,13.89,2.72Z"/></g><g><path class="cls-9" d="M75.2,45.79c3.77-3.95,9.13-6.34,15-6.14,7.87,.26,14.52,5.09,17.51,11.86-1.67,.12-3.32,.09-4.88-.04-2.53-.2-4.79-.65-6.53-1.08-1.71-.42-2.92-.84-3.42-.98-7.07-2.61-12.95-3.55-17.69-3.62Z"/><path class="cls-9" d="M75.2,45.79c3.77-3.95,9.13-6.34,15-6.14,7.87,.26,14.52,5.09,17.51,11.86-1.67,.12-3.32,.09-4.88-.04-2.53-.2-4.79-.65-6.53-1.08-1.71-.42-2.92-.84-3.42-.98-7.07-2.61-12.95-3.55-17.69-3.62Z"/></g><g><path class="cls-1" d="M78.67,54.57s.03,1.23-.59,1.08c-.62-.26,.17-1.25,.17-1.25,0,0-.85,.89-1.19,.35-.27-.62,1-.76,1-.76,0,0-1.24,0-1.08-.62,.26-.63,1.24,.19,1.24,.19,0,0-.89-.86-.34-1.19,.62-.27,.75,1,.75,1,0,0,0-1.24,.62-1.08,.63,.19-.2,1.24-.2,1.24,0,0,.84-.99,1.15-.4,.3,.59-.96,.81-.96,.81,0,0,1.22-.1,1.1,.53-.22,.64-1.26-.11-1.26-.11,0,0,.92,.81,.38,1.17-.61,.28-.79-.97-.79-.97Z"/><path class="cls-8" d="M78.67,54.57s.03,1.23-.59,1.08c-.62-.26,.17-1.25,.17-1.25,0,0-.85,.89-1.19,.35-.27-.62,1-.76,1-.76,0,0-1.24,0-1.08-.62,.26-.63,1.24,.19,1.24,.19,0,0-.89-.86-.34-1.19,.62-.27,.75,1,.75,1,0,0,0-1.24,.62-1.08,.63,.19-.2,1.24-.2,1.24,0,0,.84-.99,1.15-.4,.3,.59-.96,.81-.96,.81,0,0,1.22-.1,1.1,.53-.22,.64-1.26-.11-1.26-.11,0,0,.92,.81,.38,1.17-.61,.28-.79-.97-.79-.97Z"/></g><path class="cls-2" d="M64.02,51.9c1.04,1.3,1.68,3.47,1.57,5.88-.13,2.86-1.6,5.49-3,6.5l12.49,.41,.23-6.99c-1.63,5.73-4.38,5.82-4.38,5.82-2.37-.31-2.63-3.21-2.5-5.65,.15-3.03,1.75-4.5,2.88-5.74l-7.29-.24h0Z"/><path class="cls-2" d="M80.1,64.86l.27-8.27-3.75-.12c.74,.94,1.29,2.59,.92,4.16-.44,1.85-1.08,3.38-1.63,4.12l4.18,.12Z"/><path class="cls-2" d="M81.29,56.59c.35,.46,2.37,3.34-.59,8.29l4.28,.14c-.14-.75-.64-2.98,.07-5.23,.21-.66,1.33-2.54,2.32-.9,.11,.24,.99,1.82-.29,6.2l3.65,.12c-.24-.78-1.1-4.09,.1-6,.58-1.12,1.95-1.43,2.48,.33,0,0,.34,2.51-.56,5.73,.44,.01,4.2,.14,4.2,.14-.31-.01-.84-.82-.77-2.48,.01-.4,.03-3.92-.29-4.48-.32-1.05-2.38-3.1-5.55-.18-.26-.48-1.67-3.41-5.39-.21,.02-.62,.04-1.35,.04-1.35l-3.7-.12Z"/><path class="cls-2" d="M110.17,61.94c-2.07,1.83-1.1,3.09-.67,3.35,1.84,.95,2.76-1.61,2.85-2,.45-1.62-.43-2.77-2.18-1.35Zm-2.24-4.34c.79-.44,3.08-.43,3.42-.4,3.01,.13,3.67,2.35,3.67,2.35,.31,.91,.41,4.49,.41,4.49-.06,.93,.28,2.01,.59,2.15l-3.48-.12-.13-.57c-.77,.64-2.6,1.26-3.27,1.07-2.91-.2-3.28-2.36-3.27-2.73-.24-2.33,4.53-3.08,4.83-3.16,1.47-.24,1.82-1.38,1.73-1.78-.39-1.28-2.54-1.18-2.88-.34,.6,2.52-1.77,2.61-2.46,2.12-1.07-.77-1.18-2.44,.83-3.08Z"/><path class="cls-1" d="M104,57.62c1.07,.71,1.16,1.96,1.16,1.96-.13,2.5-2.98,1.86-3.09,.48-.26-1.54,.88-1.63,.84-1.74-.38-1.02-1.74-.77-2.12,0-.61,.73-.97,2.7-.77,4.23,.16,1.23,.71,2.64,2.11,2.79,1.09,.04,2.23-.76,3.19-1.57-.79,1.41-2.35,2.38-4.03,2.32-2.47-.08-4.4-2.18-4.31-4.76,.09-2.58,2.16-4.6,4.63-4.52,.85,.03,1.65,.3,2.32,.76,0,0,.02,.02,.07,.05Z"/></g><g><path class="cls-6" d="M157.74,128.45l2.67-9.02h-6.73l8.71-10.43,1.32-4.62,2.96-10.06-21.35,.04h-4.18l2.09-6.92h-18.14l-2.36,7.16-26.66-.19s-4.38-.42-7.08-.42c-5.24,0-9.4,1.29-12.34,3.81-.17,.14-.35,.3-.51,.45-.97-1.43-2.29-2.54-3.92-3.26-1.31-.58-2.8-.89-4.44-.94-.12,0-.24,0-.35,0-1.12,0-2.21,.12-3.26,.35l-8.39,.02c0-.1,0-.19,0-.29,.03-2.96-.72-5.49-2.17-7.47-1.19-1.72-2.84-3.04-4.89-3.96-2.27-1.01-4.98-1.51-8.28-1.5-2.34,0-4.46,.22-6.41,.65-.14,.02-.29,.06-.42,.1-.73,.17-1.42,.37-2.1,.61-.02,0-.04,.02-.07,.03-1.43,.5-2.73,1.15-3.89,1.94-3.37,2.29-5.78,5.9-7.17,10.74-.58,2.09-.87,3.97-.89,5.83,.03,1.7,.32,3.27,.85,4.66,.65,1.75,1.74,3.38,3.29,4.96-5.82,.15-10.56,4.88-10.63,10.69v.15c.03,2.98,.78,5.57,2.24,7.67,1.24,1.8,2.96,3.2,5.11,4.16,2.32,1.04,5.09,1.53,8.44,1.53,3.73-.01,6.99-.54,9.72-1.59l-3.47,11.94c2.91,.6,5.97,.82,9.08,.59,1.66-.13,3.28-.37,4.85-.73,3.05-1.23,5.6-3.98,6.49-7.12l.99-3.47c.94,.21,1.93,.32,2.97,.3,3.87,0,7.26-1.44,9.83-4.15,.13-.14,.27-.28,.39-.43,.05-.06,.1-.12,.15-.18,1.16,1.47,2.65,2.62,4.43,3.41,1.96,.87,4.29,1.31,6.91,1.3,2.68,0,6.86,.03,6.86,.03l10.91-.02c4.47,0,8.47-3.02,9.7-7.32l2.68-9.32c1.09-3.98,2.02-5.21,2.29-5.48,1.06-1.05,3.4-.18,3.4-.18l-1.55,5.13c-1.6,5.19-1.46,9.18,.42,12.18,1.04,1.66,2.53,2.93,4.43,3.78,1.62,.72,3.53,1.12,5.71,1.19l23.56-.14c3.83-.01,7.22-2.58,8.23-6.21Z"/><path class="cls-3" d="M16.17,126.12c-.56-1.35-.85-2.88-.87-4.59v-.11c.06-4.6,3.9-8.36,8.56-8.37l6.54-.02-1.76-1.18c-3.22-2.21-5.23-4.48-6.14-6.92-.44-1.16-.68-2.46-.71-3.89,.02-1.59,.28-3.27,.81-5.16,1.23-4.28,3.33-7.46,6.24-9.44,2.83-1.93,6.73-2.91,11.58-2.92,2.96,0,5.35,.42,7.32,1.29,1.66,.74,2.98,1.8,3.93,3.16,1.18,1.61,1.77,3.67,1.75,6.11,.01,.81-.06,1.7-.2,2.65l10.74-.02c.07-.01,2.23-.35,3.46-.35,1.44,0,2.74,.25,3.84,.74,1.8,.8,3.12,2.26,3.82,4.19,.16,.45,.3,.94,.4,1.46,.82-1.31,1.72-2.39,2.68-3.2,2.51-2.14,6.16-3.23,10.84-3.24,2.5,0,33.18,.36,35.33,.38l2.42-6.94h13.34l-2.08,6.92h4.29l21.26-.03-2.08,7.06-1.21,4.19-11.57,13.88,8.6-.02-1.77,6.01c-.75,2.67-3.22,4.53-6,4.54l-20.24,.22s-1.72-.08-2.62-.08c-2.13,0-3.97-.33-5.46-.99-1.47-.66-2.62-1.63-3.4-2.89-1.5-2.4-1.55-5.76-.17-10.26l2.42-7.72c-.94-.33-6.24-2.08-8.19,.47-.73,.95-1.81,2.66-2.85,6.48l-2.67,9.28c-.95,3.31-4.02,5.63-7.47,5.64l-7.8,.02,.97-3.37c-.05,.05-.1,.09-.15,.14-2.48,2.12-6.11,3.2-10.79,3.21-2.29,0-4.29-.37-5.95-1.1-1.63-.73-2.95-1.81-3.92-3.21-.53-.77-.94-1.66-1.23-2.63-.68,1.28-1.4,2.36-2.15,3.22-2.19,2.5-5.03,3.77-8.46,3.78-1.55,0-2.95-.27-4.19-.82-.12-.05-.23-.11-.34-.16l-1.67,5.85c-.93,3.27-3.96,5.57-7.37,5.57l-7.7,.02,.06-.21,4.2-14.54c-.51,.48-1.05,.91-1.6,1.29-2.91,2.03-6.96,3.06-12.02,3.08-3.01,0-5.46-.43-7.49-1.33l-.06-.03c-1.72-.78-3.09-1.9-4.07-3.32-.38-.55-.7-1.15-.97-1.79Zm14.4-12.76l-6.71,.02c-4.48,0-8.18,3.62-8.24,8.05v.11c.03,2.44,.63,4.53,1.78,6.19,.96,1.39,2.31,2.48,4,3.23l.06,.03c1.97,.86,4.36,1.28,7.3,1.28,5-.01,8.98-1.03,11.84-3.02,.69-.47,1.36-1.04,1.99-1.68l.27,.16-4.31,14.92,7.27-.02c3.26,0,6.16-2.2,7.06-5.34l1.78-6.23,.18,.09c.16,.09,.33,.17,.5,.24,1.19,.53,2.56,.8,4.06,.8,3.33,0,6.1-1.24,8.22-3.67,.8-.91,1.57-2.1,2.29-3.52l.2-.39,.11,.42c.28,1.1,.71,2.09,1.29,2.93,.94,1.35,2.21,2.4,3.79,3.1,1.62,.72,3.57,1.08,5.82,1.08,4.6-.01,8.16-1.06,10.58-3.13,.16-.13,.3-.28,.45-.43l.56-.54-1.19,4.13,7.37-.02c3.3,0,6.25-2.23,7.16-5.4l2.67-9.28c1.05-3.88,2.16-5.62,2.9-6.59,2.28-2.98,8.44-.63,8.7-.53l.14,.05-2.51,8.01c-1.36,4.41-1.31,7.68,.13,10,.75,1.2,1.85,2.13,3.26,2.76,1.45,.64,3.24,.97,5.32,.96,.9,0,2.61,.08,2.62,.08l20.23-.22c2.65,0,4.99-1.78,5.69-4.3h0l1.65-5.6-8.86,.02,12-14.38,1.17-4.1,1.95-6.64-21.24,.03h-4.32l2.08-6.92h-12.67l-2.42,6.95h-.12c-.33,0-32.87-.39-35.45-.38-4.6,.01-8.18,1.07-10.63,3.16-1.02,.86-1.97,2.04-2.83,3.49l-.23,.39-.07-.45c-.1-.66-.25-1.27-.45-1.83-.66-1.85-1.93-3.24-3.64-4.01-1.06-.47-2.31-.71-3.71-.71-1.2,0-3.41,.35-3.43,.35l-11.15,.03,.03-.19c.16-1,.24-1.93,.23-2.79,.02-2.38-.55-4.37-1.69-5.92-.92-1.31-2.19-2.34-3.8-3.06-1.93-.86-4.28-1.27-7.19-1.26-4.79,0-8.62,.97-11.4,2.86-2.85,1.94-4.9,5.05-6.11,9.26-.52,1.86-.78,3.52-.8,5.07,.03,1.38,.26,2.65,.68,3.77,.89,2.38,2.86,4.59,6.02,6.76l2.17,1.44h0l.9,.61c.83,.56,1.33,1.13,1.52,1.75,.15,.44,.23,1.28-.21,2.79-.25,.91-.7,1.64-1.38,2.24-.76,.68-1.34,.76-1.7,.76-.32,0-.55-.03-.71-.1-.06-.03-.11-.06-.15-.1l-.03-.03v-.04c-.11-.27-.35-1.4,.52-4.6l.81-2.96Zm.33,.01l-.83,3.03c-.82,3.01-.62,4.12-.56,4.36,0,0,.02,.01,.03,.02,.08,.03,.24,.08,.58,.08,.31,0,.81-.07,1.49-.68,.62-.55,1.04-1.23,1.28-2.08,.41-1.43,.34-2.2,.21-2.6-.17-.53-.63-1.06-1.39-1.58l-.81-.54Zm5.66-13.15c-.04-.11-.07-.21-.09-.3-.09-.38-.17-1.28,.33-3.02,.17-.59,.47-1.05,.91-1.42,.59-.48,1.02-.53,1.29-.54,.18,0,.31,0,.42,.02l.14,.02v.14c0,.47-.07,1.6-.65,3.85l-.69,2.72-.8-.54c-.51-.34-.74-.66-.86-.95Zm2.68-4.94c-.07,0-.15,0-.24,0-.22,0-.58,.05-1.08,.46-.4,.33-.66,.73-.81,1.26-.48,1.67-.41,2.5-.32,2.85,.07,.31,.22,.66,.82,1.05h0l.42,.28,.58-2.28c.51-2.01,.62-3.1,.64-3.62Zm-.73,6.62l11.8-.03-2.83,9.82-.16-.53c-.1-.32-.19-.6-.29-.85l-.02-.05c-1.01-2.45-3.13-4.74-6.48-7.01l-2.01-1.35Zm11.37,.3l-10.31,.02,1.13,.76c3.41,2.31,5.57,4.65,6.6,7.16l.02,.05h0c.05,.12,.09,.24,.14,.37l2.41-8.36Zm80.18,19.78l.03-.17c.09-.55,.27-1.23,.52-2.04l3.89-12.79,10.88-.05-10.51,12.65c-1.9,2.57-4.6,2.41-4.63,2.41l-.17-.02Zm4.67-14.68l-3.82,12.56c-.22,.7-.37,1.31-.47,1.81,.61-.02,2.64-.23,4.16-2.29h0l10.07-12.13-9.94,.04Z"/><g><path class="cls-1" d="M45.48,114.4c-.02-1.2-.22-2.27-.61-3.22-.81-2-2.69-4-5.64-6l-3.09-2.07c-1.06-.7-1.7-1.58-1.94-2.64-.26-1.08-.15-2.49,.35-4.21,.3-1.04,.86-1.91,1.68-2.59,.86-.7,1.78-1.06,2.76-1.06,1.53,0,2.44,.47,2.76,1.42,.31,.95,.12,2.79-.57,5.52l8.66-.02c.64-2.09,.95-3.9,.92-5.45,.02-1.86-.41-3.39-1.27-4.57-1.55-2.22-4.57-3.33-9.06-3.32-4.33,.01-7.7,.83-10.09,2.46-2.39,1.63-4.12,4.28-5.17,7.95-.46,1.65-.7,3.11-.71,4.39,.02,1.12,.2,2.13,.54,3.01,.71,1.9,2.43,3.78,5.13,5.64l3.08,2.07c1.27,.86,2.08,1.84,2.42,2.94,.36,1.1,.31,2.49-.17,4.15-.38,1.34-1.07,2.46-2.08,3.36-1.01,.9-2.09,1.34-3.24,1.35-1.64,0-2.68-.61-3.11-1.83-.43-1.22-.27-3.22,.49-5.99h-3.64c-3.19,.02-5.87,2.55-5.91,5.75v.05c.02,1.98,.48,3.62,1.36,4.9,1.63,2.36,4.77,3.54,9.43,3.53,4.53-.01,8.04-.88,10.52-2.61,2.52-1.73,4.35-4.55,5.49-8.46,.46-1.63,.7-3.11,.71-4.45Z"/><path class="cls-1" d="M71.97,111.55c.72-2.49,1.07-4.61,1.07-6.38,0-1.12-.15-2.1-.46-2.95-.77-2.12-2.48-3.18-5.15-3.18-2.91,0-5.35,1.11-7.33,3.32l-.57,.63,1.08-3.6-7.16,.02-11.8,40.88h4.16c2.24-.01,4.2-1.5,4.82-3.65l2.85-10,.12,.21c1.23,2,3.15,3,5.78,2.99,2.64,0,4.8-.96,6.47-2.87,1.67-1.91,3.14-5.1,4.41-9.57l1.7-5.87Zm-12.3,11.97c-.68,.76-1.51,1.15-2.48,1.15-1.03,0-1.69-.45-2-1.35-.3-.9-.22-2.14,.26-3.73l2.04-7.1c.87-2.99,1.7-5.09,2.49-6.31,.79-1.21,1.72-1.82,2.8-1.83,.98,0,1.6,.47,1.86,1.42,.26,.95,.14,2.3-.35,4.05l-2.92,10.17c-.46,1.59-1.03,2.76-1.71,3.52Z"/><path class="cls-1" d="M97.17,111.01c.54-1.93,.81-3.61,.83-5.05-.02-1.64-.39-2.99-1.09-4.03-1.33-1.96-3.97-2.94-7.92-2.93-4.05,0-7.09,.88-9.12,2.61-2.03,1.73-3.7,4.88-5.02,9.45l-1.97,6.8c-.48,1.63-.7,3.09-.68,4.39-.02,1.72,.39,3.19,1.21,4.39,1.47,2.12,4.03,3.18,7.68,3.17,4.05,0,7.08-.87,9.08-2.58,2.04-1.73,3.72-4.87,5.03-9.42l1.97-6.8Zm-12.13,12.18c-.6,.86-1.46,1.3-2.58,1.3-1.4,0-2.18-.44-2.33-1.32-.15-.88,.16-2.66,.94-5.32l1.97-6.8c.73-2.73,1.39-4.53,1.99-5.4,.6-.87,1.47-1.31,2.6-1.31,1.38,0,2.15,.44,2.3,1.33,.15,.89-.16,2.68-.93,5.37l-1.97,6.8c-.73,2.71-1.39,4.49-1.98,5.36Z"/><path class="cls-1" d="M118.66,98.95c-3.05-.01-6,1.44-8.85,4.35l1.1-3.9h-12.88s4.38,2.25,3.41,6.68l-6.83,23.74h4.26c2.28-.01,4.29-1.53,4.92-3.72l2.66-9.24c1-3.67,2.15-6.2,3.47-7.6,1.32-1.4,3.22-2.1,5.69-2.1,.59,0,1.12,.09,2.01,.35l2.56-8.46-1.52-.11Z"/><path class="cls-1" d="M131.37,124.37c-1.98,0-3.15-.31-3.51-.94-.35-.63-.18-2.08,.52-4.35l4.39-14.44h4.48l1.52-5.29h-4.35l2.08-6.92h-7.87l-2.42,6.94h-3.46l-1.52,5.3h3.32l-4.39,14.43c-1.13,3.69-1.17,6.38-.12,8.07,1.06,1.69,3.23,2.64,6.6,2.63,1.32,0,2.64-.21,3.33-.42l1.52-5.06-.13,.05Z"/><path class="cls-1" d="M152.96,127.04l.77-2.59-10.72,.02,1.73-2.07,13.16-15.77,1.04-3.65,1.06-3.57-18.44-.05-.78,2.66-.73,2.59,10.36-.04-1.75,2.07-14.2,17.1-1.81,6.1,16.87-.18c1.61,0,3.03-1.08,3.46-2.63Z"/></g></g><path class="cls-1" d="M111.82,74.33c.31,0,.61,.08,.9,.23,.29,.16,.52,.38,.69,.66,.17,.28,.25,.58,.25,.9s-.08,.6-.24,.89c-.16,.28-.39,.5-.68,.66-.29,.16-.6,.23-.92,.23s-.62-.08-.92-.23c-.29-.16-.52-.38-.68-.66-.16-.28-.24-.58-.24-.89s.08-.61,.25-.9c.16-.29,.4-.51,.69-.66,.29-.15,.6-.23,.91-.23Zm0,.3c-.26,0-.51,.06-.76,.19-.24,.13-.44,.31-.57,.55-.14,.24-.21,.49-.21,.75s.07,.5,.2,.74c.14,.24,.33,.42,.57,.55,.24,.14,.5,.2,.76,.2s.52-.06,.76-.2c.24-.13,.43-.31,.57-.55,.14-.23,.2-.48,.2-.74s-.07-.51-.2-.75c-.14-.24-.33-.42-.58-.55-.25-.13-.5-.19-.75-.19Zm-.81,2.47v-1.92h.68c.23,0,.4,.02,.5,.05,.11,.03,.19,.09,.25,.19,.07,.09,.09,.18,.09,.28,0,.14-.05,.26-.15,.37-.1,.1-.24,.16-.41,.17,.07,.03,.13,.06,.17,.1,.08,.07,.18,.2,.3,.38l.24,.37h-.39l-.18-.3c-.14-.24-.25-.39-.33-.45-.06-.05-.14-.07-.26-.07h-.19v.81h-.32Zm.32-1.08h.39c.18,0,.31-.02,.38-.08,.07-.06,.1-.12,.1-.21,0-.06-.02-.11-.05-.15-.03-.05-.08-.08-.14-.1-.06-.02-.16-.03-.32-.03h-.36v.58Z"/></svg>